<svg width="22" height="22" viewBox="0 0 22 22" fill="none" xmlns="http://www.w3.org/2000/svg">
<path d="M20.6709 2.88422C21.12 2.43511 21.12 1.70698 20.6709 1.25787C20.2218 0.808769 19.4937 0.808769 19.0446 1.25787L20.6709 2.88422ZM1.18685 19.1156C0.737744 19.5647 0.737745 20.2928 1.18685 20.7419C1.63595 21.191 2.36409 21.191 2.81319 20.7419L1.18685 19.1156ZM19.0446 1.25787L1.18685 19.1156L2.81319 20.7419L20.6709 2.88422L19.0446 1.25787Z" fill="#00284F"/>
<path d="M2.81329 1.25787C2.36419 0.808769 1.63605 0.808769 1.18695 1.25787C0.737846 1.70698 0.737846 2.43511 1.18695 2.88422L2.81329 1.25787ZM19.0447 20.7419C19.4938 21.191 20.2219 21.191 20.671 20.7419C21.1201 20.2928 21.1201 19.5647 20.671 19.1156L19.0447 20.7419ZM1.18695 2.88422L19.0447 20.7419L20.671 19.1156L2.81329 1.25787L1.18695 2.88422Z" fill="#00284F"/>
</svg>
