<svg width="198" height="32" viewBox="0 0 198 32" fill="none" xmlns="http://www.w3.org/2000/svg">
<g clip-path="url(#clip0_1_155)">
<path d="M3.08328 25.7945V5.20655C3.08328 4.54498 3.08328 4.04219 3.0435 3.77095C3.00413 3.48073 2.91674 3.19905 2.7849 2.93738C2.55283 2.36843 1.96933 2.07073 1.02776 2.03765C0.364692 2.03765 0 1.75317 0 1.27023C0 0.787283 0.351429 0.60866 1.06755 0.60866H10.629C12.7271 0.584809 14.8168 0.874707 16.8288 1.4687C18.5679 1.97259 20.1964 2.79847 21.6294 3.90326C22.9235 4.92211 23.9839 6.20567 24.7392 7.66758C25.4884 9.15255 25.8704 10.7949 25.8532 12.4573C25.8532 15.5446 24.737 17.9197 22.5047 19.5824C20.2723 21.2451 17.1139 22.0787 13.0294 22.0831C12.3707 22.0831 11.7076 22.0633 11.0401 22.0236C10.3771 21.9773 9.80684 21.9111 9.32279 21.8317C9.01115 21.7722 8.71939 21.7259 8.44753 21.6994C8.17567 21.6729 7.98339 21.6597 7.86404 21.6597C7.37999 21.6597 7.13465 21.931 7.13465 22.4668V26.7472C7.13465 27.4087 7.13466 27.9115 7.18107 28.1828C7.20863 28.4549 7.28029 28.7208 7.39325 28.97C7.52297 29.266 7.75974 29.5022 8.05632 29.6316C8.43588 29.7753 8.83268 29.8687 9.23659 29.9095C9.89966 29.9095 10.2246 30.1939 10.2246 30.6769C10.2246 31.1598 9.86652 31.3384 9.1504 31.3384H1.02776C0.364692 31.3384 0 31.1135 0 30.6769C0 30.2402 0.324903 29.9359 0.981344 29.9095C1.37946 29.8726 1.77022 29.7791 2.14172 29.6316C2.43612 29.499 2.6719 29.2638 2.80479 28.97C2.9445 28.7426 3.03275 28.4875 3.06339 28.2225C3.06339 27.9512 3.10317 27.4617 3.10317 26.7472L3.08328 25.7945ZM10.2047 2.18318C9.37895 2.10792 8.54839 2.2613 7.80435 2.62644C7.56954 2.81907 7.38612 3.06666 7.27043 3.34714C7.15474 3.62763 7.11037 3.93231 7.14128 4.23404V17.7763C7.12569 18.1806 7.22436 18.581 7.42603 18.932C7.6277 19.2829 7.92424 19.5702 8.28177 19.761C9.44645 20.2742 10.7176 20.5011 11.9883 20.4226C13.2158 20.451 14.4418 20.3198 15.6352 20.0323C16.5811 19.7771 17.4683 19.3413 18.2477 18.7488C20.3121 17.214 21.3421 14.9757 21.3377 12.0339C21.3591 10.6349 21.0951 9.24613 20.5619 7.95205C20.0672 6.7612 19.305 5.69965 18.3339 4.84931C17.3055 3.96252 16.111 3.28795 14.8197 2.86461C13.3294 2.38558 11.7701 2.15534 10.2047 2.18318V2.18318Z" fill="#00284F"/>
<path d="M30.74 23.3996C30.3952 23.5121 30.2228 23.6378 30.2228 23.7833C30.2881 24.2608 30.4338 24.7238 30.6538 25.1528C31.2924 26.626 32.3133 27.9026 33.6111 28.8509C34.807 29.7191 36.2499 30.1828 37.7288 30.1741C38.769 30.1703 39.7944 29.9281 40.7259 29.4662C41.7197 28.9805 42.6093 28.3064 43.345 27.4815C43.4354 27.3554 43.5533 27.2513 43.6898 27.1772C43.782 27.1277 43.8838 27.0983 43.9882 27.0912C44.3595 27.0912 44.5452 27.2963 44.5452 27.6932C44.5298 27.9072 44.4565 28.113 44.333 28.2886C43.4424 29.4787 42.2499 30.4104 40.8784 30.9878C39.4297 31.6386 37.8588 31.9746 36.27 31.9735C34.8579 31.9878 33.4575 31.7178 32.1524 31.1797C30.9254 30.6763 29.8136 29.9294 28.8847 28.9844C27.9557 28.0393 27.2289 26.9158 26.7483 25.6821C25.751 23.068 25.7228 20.1844 26.6688 17.5514C27.0882 16.3826 27.7349 15.3079 28.5718 14.3891C29.3931 13.5014 30.3854 12.7882 31.4893 12.2919C32.6412 11.7734 33.8925 11.5116 35.1561 11.5245C36.5415 11.5099 37.9087 11.8396 39.1345 12.4838C40.3889 13.1596 41.4798 14.1013 42.3305 15.2425C42.9288 16.0301 43.4443 16.8769 43.8689 17.7697C44.0428 18.1306 44.1463 18.5213 44.1739 18.9208C44.179 19.0379 44.1436 19.153 44.0735 19.247C44.0035 19.341 43.9031 19.4081 43.7893 19.4369L30.74 23.3996ZM30.0107 22.0302C30.1466 22.0128 30.2775 21.9678 30.3952 21.8979L39.7446 19.1656C40.0827 19.0796 40.2551 18.9208 40.2551 18.6959C40.2409 18.471 40.1986 18.2488 40.1291 18.0343C40.0429 17.7366 39.9302 17.3728 39.7843 17.0287C39.4424 16.1356 38.9003 15.3323 38.1996 14.6802C37.6964 14.1845 37.0999 13.7931 36.4444 13.5285C35.7889 13.264 35.0874 13.1315 34.3803 13.1387C33.6899 13.1175 33.005 13.2686 32.3879 13.5782C31.7708 13.8878 31.2408 14.3461 30.8461 14.9117C29.8936 16.3466 29.4287 18.049 29.52 19.7676C29.5098 20.3129 29.552 20.8579 29.646 21.3951C29.752 21.8185 29.8979 22.0302 30.0107 22.0302V22.0302Z" fill="#00284F"/>
<path d="M51.7064 12.4837L51.7462 15.6063C51.7462 15.8048 51.7462 15.904 51.8324 15.904C51.9964 15.7371 52.1389 15.5504 52.2567 15.3483C52.5543 14.8181 52.9199 14.3289 53.3442 13.8929C53.7801 13.4389 54.2674 13.0371 54.7963 12.6954C55.304 12.3635 55.8493 12.0926 56.4208 11.8883C56.9678 11.6935 57.5441 11.5928 58.1249 11.5906C58.6168 11.5889 59.1062 11.6603 59.5771 11.8023C60.0131 11.9378 60.4316 12.1243 60.8236 12.358C61.0226 12.444 61.122 12.5499 61.122 12.6623C61.124 12.8007 61.0796 12.9357 60.996 13.0461C60.7109 13.7076 60.4589 14.3692 60.2467 14.9911C60.0842 15.4463 59.947 15.9101 59.8356 16.3804C59.8178 16.6359 59.7282 16.8812 59.5771 17.0882C59.5173 17.1525 59.4442 17.2029 59.3629 17.2361C59.2816 17.2692 59.194 17.2842 59.1063 17.2801C58.7946 17.2801 58.6222 16.9956 58.5957 16.4267C58.5915 16.1469 58.5312 15.8709 58.4181 15.6149C58.3051 15.3589 58.1417 15.1282 57.9377 14.9363C57.7336 14.7444 57.4931 14.5954 57.2302 14.498C56.9674 14.4006 56.6877 14.3568 56.4076 14.3692C55.7655 14.3665 55.1326 14.5209 54.5642 14.8191C53.9884 15.1241 53.4843 15.5481 53.0856 16.0628C52.6556 16.6165 52.3217 17.2382 52.0976 17.902C51.85 18.6236 51.7267 19.3819 51.7329 20.1447V27.5873C51.6685 28.215 51.8282 28.8452 52.1838 29.3669C52.6748 29.7768 53.2826 30.0221 53.921 30.0682C54.4913 30.1542 54.7764 30.3857 54.7764 30.7297C54.7764 31.0737 54.478 31.3252 53.8746 31.3252H46.1763C45.5464 31.3252 45.2282 31.1135 45.2282 30.6636C45.2282 30.3527 45.5332 30.141 46.1299 30.002C46.5008 29.9566 46.8629 29.8563 47.2041 29.7043C47.484 29.6031 47.7189 29.4062 47.8672 29.1486C48.1021 28.6403 48.1916 28.077 48.1258 27.5212V18.2658C48.1668 17.6908 48.0854 17.1136 47.8871 16.5722C47.7871 16.4094 47.6529 16.2701 47.4938 16.1639C47.3347 16.0576 47.1544 15.9871 46.9654 15.957L46.6206 15.8709C46.464 15.8486 46.3205 15.7712 46.2161 15.6526C46.1184 15.5486 46.0639 15.4115 46.0636 15.2689C46.068 15.1544 46.102 15.043 46.1624 14.9456C46.2229 14.8482 46.3076 14.7681 46.4084 14.7132L50.9173 11.8883C50.9898 11.8286 51.082 11.7979 51.1759 11.8023C51.4942 11.8222 51.6732 12.0339 51.7064 12.4837Z" fill="#00284F"/>
<path d="M66.7979 0.767306V27.6997C66.7926 28.0296 66.8148 28.3593 66.8642 28.6854C66.8967 28.8752 66.9478 29.0613 67.0167 29.2411C67.1832 29.4985 67.4107 29.7109 67.679 29.8598C67.9472 30.0086 68.2481 30.0892 68.555 30.0946C69.1584 30.1806 69.4568 30.4121 69.4568 30.7561C69.4568 31.1002 69.1319 31.3515 68.4755 31.3515H61.5265C60.8966 31.3515 60.5849 31.1398 60.5849 30.69C60.5849 30.2401 60.8833 30.1343 61.4867 30.0284C61.7819 29.9518 62.0685 29.8454 62.3421 29.7109C62.584 29.6015 62.7807 29.4123 62.899 29.175C63.1356 28.6531 63.225 28.0767 63.1576 27.5078V6.13924C63.1623 5.95944 63.1468 5.7797 63.1112 5.60337C63.0993 5.27643 62.9768 4.96312 62.7637 4.71447C62.5506 4.46582 62.2595 4.29645 61.9376 4.23392L61.6458 4.14791C61.5698 4.1454 61.495 4.12772 61.4259 4.09591C61.3567 4.06409 61.2947 4.01879 61.2434 3.96269C61.1921 3.90658 61.1526 3.84079 61.1272 3.76921C61.1018 3.69763 61.091 3.6217 61.0955 3.5459C61.1088 3.42797 61.1516 3.31528 61.2199 3.21817C61.2883 3.12107 61.38 3.04266 61.4867 2.99017L66.0287 0.171899C66.056 0.143375 66.089 0.12096 66.1256 0.106132C66.1621 0.0913048 66.2015 0.0844007 66.2409 0.0858925C66.5592 0.0858925 66.7449 0.310824 66.7979 0.767306Z" fill="#00284F"/>
<path d="M83.0366 20.3168L82.5658 17.1545C82.471 16.0163 82.0052 14.9405 81.2396 14.0914C80.4161 13.4159 79.3662 13.0777 78.3022 13.1454C77.3859 13.1611 76.4828 13.366 75.6499 13.7474C74.7454 14.1468 73.9346 14.7304 73.2695 15.4609C72.9313 15.7983 72.6595 15.9703 72.4539 15.9703C72.3782 15.9814 72.3009 15.9747 72.2282 15.9508C72.1556 15.9268 72.0895 15.8861 72.0354 15.8321C71.9813 15.7781 71.9406 15.7123 71.9165 15.6398C71.8925 15.5672 71.8858 15.4901 71.8969 15.4146C71.9119 15.2907 71.9575 15.1725 72.0296 15.0706C72.1158 14.9316 72.2019 14.7993 72.2881 14.6869C73.1584 13.6771 74.2496 12.8804 75.4775 12.3581C76.7316 11.8089 78.0863 11.525 79.4559 11.5246C81.1657 11.4306 82.8533 11.9465 84.2168 12.98C85.4527 14.0785 86.2193 15.6081 86.3585 17.2537L87.7112 27.0383C87.7684 27.8667 87.994 28.6747 88.3743 29.4133C88.4886 29.634 88.6603 29.8199 88.8715 29.9515C89.0827 30.083 89.3255 30.1554 89.5744 30.1609C89.8064 30.1671 90.0357 30.1099 90.2375 29.9955C90.4065 29.9107 90.5437 29.7738 90.6287 29.6052L90.8409 29.1818C90.8409 29.0958 90.9271 29.0495 91.0995 29.0495C91.2719 29.0495 91.4841 29.248 91.4841 29.6515C91.4746 29.9852 91.3809 30.311 91.2117 30.599C91.0424 30.8869 90.8032 31.1276 90.516 31.2988C89.8102 31.7597 88.9785 31.9908 88.1356 31.9604C86.4779 31.9604 85.3352 31.3473 84.7075 30.1212C84.5682 29.8103 84.4489 29.6515 84.3627 29.6515L84.1969 29.7375C82.4464 31.1739 80.2436 31.9471 77.9773 31.9207C76.925 31.931 75.879 31.7563 74.8874 31.4047C73.9935 31.0868 73.1663 30.6068 72.4473 29.9889C71.7628 29.3903 71.2077 28.6587 70.8161 27.8388C70.4196 27.013 70.2156 26.1083 70.2194 25.1925C70.2144 24.3275 70.4191 23.4741 70.8161 22.7051C71.2192 21.9342 71.782 21.2577 72.4672 20.7204C73.2154 20.1428 74.0561 19.6954 74.9537 19.3972C75.9553 19.0598 77.0064 18.8921 78.0635 18.9011C78.5064 18.9 78.9491 18.9221 79.3897 18.9672C79.7683 19.0111 80.1415 19.0931 80.5036 19.212C80.8617 19.3311 81.2463 19.4766 81.664 19.6552C82.1334 19.8502 82.5916 20.0711 83.0366 20.3168V20.3168ZM83.9383 26.3768L83.2752 22.189C82.6721 21.5656 81.9654 21.0508 81.1866 20.6674C80.4516 20.3356 79.6526 20.1686 78.8459 20.1779C78.1887 20.1563 77.5338 20.2663 76.92 20.5015C76.3061 20.7367 75.7457 21.0923 75.272 21.5473C74.8003 21.9987 74.4295 22.5443 74.1839 23.1486C73.9382 23.7528 73.8232 24.402 73.8464 25.0536C73.8418 25.7666 73.9816 26.4732 74.2575 27.1309C74.5218 27.7631 74.9095 28.3366 75.3979 28.8179C75.8811 29.2966 76.4502 29.6804 77.0755 29.9492C77.7295 30.2265 78.4338 30.3661 79.1443 30.3594C79.7768 30.3636 80.4066 30.2767 81.0142 30.1014C81.5612 29.9584 82.0841 29.7354 82.5658 29.4398C82.9881 29.1791 83.348 28.829 83.62 28.4144C83.869 28.0491 84.0051 27.6189 84.0112 27.1772C84.0187 27.0494 84.0187 26.9213 84.0112 26.7935C83.9847 26.6612 83.9648 26.5355 83.9383 26.3768Z" fill="#00284F"/>
<path d="M101.914 25.7482V5.13378C101.978 4.29879 101.862 3.45986 101.576 2.67275C101.433 2.45269 101.236 2.27238 101.004 2.14861C100.772 2.02484 100.513 1.96163 100.25 1.96488C99.9638 1.96938 99.6819 1.89619 99.4343 1.75317C99.3579 1.68349 99.2989 1.59694 99.2621 1.50044C99.2253 1.40394 99.2116 1.30018 99.2221 1.19746C99.2221 0.740974 99.5802 0.535889 100.296 0.535889H107.477C108.193 0.535889 108.552 0.767437 108.552 1.19746C108.563 1.29792 108.549 1.39969 108.511 1.49334C108.473 1.587 108.411 1.66953 108.333 1.73332C108.096 1.865 107.834 1.944 107.564 1.96488C107.276 1.982 106.994 2.04684 106.728 2.15673C106.509 2.25909 106.333 2.43463 106.231 2.6529C106.099 2.95005 106.02 3.26803 105.999 3.59233C105.949 4.08909 105.927 4.58825 105.932 5.08747V12.1927C105.881 12.6249 105.997 13.0604 106.257 13.41C106.61 13.6645 107.045 13.7779 107.477 13.7275H122.138C122.578 13.7733 123.02 13.6607 123.384 13.41C123.667 13.0304 123.791 12.5558 123.729 12.0868V5.08747C123.794 4.26057 123.676 3.4296 123.384 2.6529C123.235 2.44268 123.035 2.27242 122.804 2.15706C122.573 2.0417 122.317 1.98479 122.058 1.99133C121.395 1.99133 121.031 1.70686 121.031 1.22391C121.031 0.74097 121.389 0.562347 122.105 0.562347H129.438C130.148 0.562347 130.506 0.793895 130.506 1.22391C130.506 1.65393 130.181 1.96487 129.518 1.99133C129.206 1.97079 128.895 2.04599 128.627 2.20683C128.359 2.36766 128.147 2.60643 128.019 2.89107C127.906 3.14823 127.841 3.42407 127.827 3.70479C127.827 3.98926 127.827 4.47221 127.827 5.16024V26.6744C127.827 27.4154 127.827 27.9115 127.867 28.1497C127.903 28.4185 127.961 28.684 128.039 28.9436C128.14 29.2171 128.329 29.4497 128.576 29.6051C128.868 29.7401 129.179 29.8272 129.498 29.8631C130.161 29.8631 130.486 30.1476 130.486 30.6306C130.486 31.1135 130.141 31.2921 129.458 31.2921H122.065C121.355 31.2921 120.997 31.0606 120.997 30.6306C120.997 30.2006 121.336 29.8896 122.025 29.8631C122.287 29.8617 122.545 29.7964 122.776 29.6731C123.007 29.5497 123.205 29.372 123.351 29.1553C123.658 28.373 123.782 27.5316 123.716 26.6943V17.2405C123.774 16.7962 123.665 16.3462 123.411 15.9769C123.026 15.7413 122.573 15.6433 122.125 15.699H107.477C107.048 15.6521 106.616 15.7575 106.257 15.9967C105.997 16.356 105.883 16.8006 105.939 17.2405V27.5477C105.939 27.7814 105.939 27.9733 105.939 28.1232C105.939 28.282 105.939 28.4143 105.979 28.5334C105.996 28.6508 106.032 28.7647 106.085 28.8708C106.183 29.158 106.371 29.4057 106.622 29.5764C106.874 29.747 107.174 29.8315 107.477 29.8169C107.762 29.8365 108.04 29.9153 108.293 30.0484C108.369 30.1136 108.429 30.1966 108.466 30.29C108.503 30.3834 108.516 30.4844 108.505 30.5843C108.505 31.0407 108.147 31.2458 107.431 31.2458H100.184C99.5205 31.2458 99.1492 31.0143 99.1492 30.5843C99.137 30.4826 99.1486 30.3795 99.1831 30.283C99.2176 30.1866 99.2741 30.0995 99.3481 30.0285C99.5843 29.8816 99.8589 29.8079 100.137 29.8169C100.405 29.8257 100.672 29.7703 100.914 29.6552C101.156 29.5401 101.367 29.3686 101.53 29.1553C101.833 28.4651 101.959 27.7099 101.894 26.9589V25.7548L101.914 25.7482Z" fill="#00284F"/>
<path d="M135.399 23.3137C135.061 23.4262 134.889 23.5585 134.889 23.6974C134.956 24.171 135.104 24.6297 135.326 25.0536C135.967 26.5255 136.988 27.8015 138.284 28.7518C139.48 29.6199 140.922 30.0836 142.401 30.0749C143.444 30.0705 144.471 29.8283 145.405 29.367C146.397 28.881 147.284 28.2069 148.018 27.3823C148.11 27.2576 148.227 27.1539 148.362 27.078C148.455 27.0285 148.556 26.9992 148.661 26.992C149.032 26.992 149.218 27.1971 149.218 27.594C149.202 27.808 149.129 28.0138 149.006 28.1894C148.116 29.3809 146.923 30.3129 145.551 30.8886C144.103 31.5402 142.532 31.8763 140.943 31.8744C139.533 31.8892 138.134 31.6191 136.832 31.0805C135.603 30.5798 134.49 29.8338 133.561 28.8885C132.631 27.9431 131.905 26.8182 131.428 25.5829C130.423 22.9705 130.393 20.0852 131.341 17.4522C131.766 16.2842 132.414 15.21 133.251 14.2899C134.07 13.4024 135.06 12.6891 136.162 12.1927C137.315 11.6779 138.565 11.4161 139.829 11.4253C141.214 11.4099 142.582 11.7396 143.807 12.3846C145.063 13.0587 146.154 14.0006 147.003 15.1433C147.602 15.9316 148.12 16.7783 148.548 17.6705C148.717 18.0327 148.819 18.4229 148.846 18.8216C148.853 18.9389 148.818 19.0547 148.748 19.149C148.677 19.2433 148.576 19.31 148.462 19.3377L135.399 23.3137ZM134.663 21.9442C134.801 21.9272 134.935 21.8822 135.055 21.8119L144.404 19.0995C144.749 19.0135 144.921 18.8547 144.921 18.6298C144.904 18.4047 144.859 18.1826 144.788 17.9682C144.702 17.6705 144.59 17.3067 144.45 16.9626C144.109 16.0678 143.564 15.2639 142.859 14.6141C142.356 14.1198 141.761 13.7292 141.106 13.4647C140.452 13.2002 139.752 13.067 139.046 13.0726C138.355 13.0521 137.669 13.2034 137.051 13.5129C136.433 13.8224 135.902 14.2804 135.505 14.8456C134.556 16.2819 134.091 17.9832 134.179 19.7015C134.171 20.247 134.215 20.7921 134.312 21.329C134.418 21.7458 134.531 21.9442 134.663 21.9442Z" fill="#00284F"/>
<path d="M155.079 0.681372V27.5873C155.071 27.9172 155.093 28.2472 155.146 28.573C155.176 28.7625 155.225 28.9486 155.292 29.1288C155.461 29.3854 155.69 29.5976 155.959 29.7473C156.227 29.897 156.529 29.9798 156.836 29.9888C157.44 30.0748 157.738 30.2997 157.738 30.6504C157.738 31.001 157.407 31.2524 156.75 31.2524H149.808C149.178 31.2524 148.866 31.0341 148.866 30.5908C148.866 30.1476 149.165 30.0417 149.761 29.9292C150.059 29.8516 150.348 29.743 150.623 29.6051C150.863 29.4919 151.058 29.3037 151.18 29.0692C151.417 28.5473 151.506 27.9709 151.439 27.4021V6.05329C151.44 5.87363 151.425 5.69425 151.393 5.51742C151.38 5.19083 151.257 4.87814 151.044 4.62972C150.831 4.38129 150.54 4.2116 150.219 4.14798L149.927 4.06198C149.851 4.06033 149.777 4.04346 149.708 4.01236C149.639 3.98127 149.577 3.93659 149.525 3.881C149.474 3.82542 149.434 3.76007 149.409 3.68886C149.383 3.61765 149.372 3.54204 149.377 3.46656C149.389 3.34831 149.431 3.23495 149.498 3.13676C149.565 3.03857 149.656 2.95865 149.761 2.90424L154.31 0.0859552C154.337 0.0570814 154.37 0.0344267 154.407 0.0195724C154.443 0.0047181 154.483 -0.00197097 154.522 -4.16474e-05C154.834 -4.16474e-05 155.02 0.22489 155.079 0.681372Z" fill="#00284F"/>
<path d="M164.767 21.7458L162.625 21.018C159.973 20.1359 158.658 18.6673 158.68 16.612C158.681 15.9231 158.843 15.2438 159.151 14.6273C159.46 14.0066 159.899 13.4586 160.437 13.0197C161.014 12.5608 161.667 12.2069 162.367 11.9744C163.155 11.7103 163.982 11.5805 164.813 11.5907C165.123 11.5907 165.395 11.5907 165.629 11.5907C165.865 11.6038 166.1 11.6326 166.332 11.6767C166.608 11.709 166.883 11.7576 167.154 11.8222L168.334 12.1663L168.911 12.3383C169.002 12.3631 169.095 12.3764 169.19 12.378C169.395 12.378 169.594 12.1927 169.793 11.8222C169.855 11.672 169.943 11.5334 170.052 11.4121C170.143 11.3636 170.247 11.3429 170.35 11.3525C170.493 11.3434 170.635 11.3805 170.754 11.4584C170.925 11.6242 171.064 11.8191 171.165 12.034L173.48 16.2283L173.632 16.526C173.667 16.5938 173.687 16.6682 173.692 16.7443C173.692 17.0288 173.539 17.1677 173.221 17.1677C173.032 17.1715 172.845 17.121 172.684 17.0222C172.467 16.8539 172.273 16.6582 172.107 16.44C171.204 15.3665 170.097 14.4808 168.851 13.8334C167.749 13.2193 166.513 12.881 165.251 12.8477C164.411 12.8245 163.588 13.0805 162.91 13.5754C162.615 13.7742 162.373 14.0422 162.205 14.3558C162.038 14.6695 161.95 15.0194 161.949 15.3749C161.943 15.7004 162.016 16.0226 162.161 16.3143C162.335 16.6331 162.585 16.9037 162.89 17.1016C163.329 17.3977 163.795 17.6503 164.283 17.8557C164.866 18.1071 165.609 18.3982 166.451 18.7092L168.977 19.6089C171.325 20.4381 172.989 21.3201 173.97 22.2552C174.46 22.7192 174.845 23.2819 175.1 23.9058C175.355 24.5297 175.474 25.2006 175.449 25.8739C175.457 26.6979 175.29 27.5143 174.958 28.2688C174.639 28.9977 174.164 29.648 173.566 30.1741C172.942 30.7148 172.222 31.1344 171.444 31.4112C170.593 31.7143 169.695 31.8666 168.792 31.8611C167.368 31.8227 165.955 31.6003 164.588 31.1996L163.839 31.0077C163.786 31.0109 163.734 30.9944 163.693 30.9614C163.659 30.9386 163.62 30.9249 163.58 30.9217C163.381 30.9217 163.156 31.1202 162.917 31.5171C162.853 31.6578 162.757 31.7822 162.638 31.881C162.538 31.9325 162.426 31.9554 162.313 31.9471C162.171 31.9563 162.029 31.9192 161.909 31.8413C161.735 31.684 161.583 31.5037 161.458 31.3054L158.03 26.2576C157.82 26.0516 157.685 25.7816 157.645 25.4902C157.634 25.4147 157.641 25.3376 157.665 25.2651C157.689 25.1926 157.73 25.1267 157.784 25.0727C157.838 25.0187 157.904 24.978 157.977 24.9541C158.049 24.9301 158.127 24.9234 158.202 24.9345C158.454 24.9345 158.773 25.1727 159.144 25.6622C159.585 26.1433 160.066 26.586 160.583 26.9854C161.339 27.6161 162.145 28.2424 163.003 28.8642C163.726 29.4124 164.538 29.8331 165.403 30.108C166.246 30.3863 167.128 30.5314 168.016 30.538C169.037 30.591 170.039 30.2445 170.807 29.5721C171.143 29.2437 171.404 28.848 171.574 28.4112C171.745 27.9743 171.82 27.5064 171.795 27.0383C171.819 26.5957 171.75 26.153 171.595 25.7377C171.44 25.3224 171.201 24.9432 170.894 24.6236C170.675 24.397 170.43 24.1971 170.164 24.0282C169.821 23.8126 169.464 23.6181 169.097 23.446C168.666 23.2475 168.149 23.0358 167.552 22.7844L164.767 21.7458Z" fill="#00284F"/>
<path d="M189.552 20.2308L189.082 17.0685C188.982 15.9315 188.517 14.8571 187.756 14.0054C186.922 13.3357 185.865 13.007 184.798 13.0859C183.882 13.1004 182.978 13.3054 182.146 13.6879C181.242 14.0879 180.431 14.6715 179.766 15.4014C179.421 15.7388 179.149 15.9108 178.95 15.9108C178.874 15.9219 178.797 15.9152 178.724 15.8912C178.652 15.8672 178.586 15.8266 178.531 15.7726C178.477 15.7186 178.437 15.6527 178.413 15.5802C178.389 15.5077 178.382 15.4306 178.393 15.355C178.408 15.2323 178.451 15.1147 178.519 15.011C178.605 14.8721 178.691 14.7464 178.778 14.6273C179.652 13.6188 180.745 12.8224 181.974 12.2986C183.238 11.7443 184.604 11.4603 185.985 11.465C187.693 11.3715 189.378 11.8874 190.739 12.9205C191.98 14.0162 192.749 15.5469 192.888 17.1942L194.26 26.9523C194.318 27.7784 194.544 28.5842 194.923 29.3207C195.037 29.5427 195.208 29.7299 195.419 29.8626C195.631 29.9954 195.874 30.0687 196.124 30.0749C196.356 30.0788 196.585 30.0193 196.787 29.9029C196.955 29.8201 197.091 29.6825 197.171 29.5126L197.39 29.0892C197.39 29.0032 197.476 28.9569 197.642 28.9569C197.808 28.9569 198.033 29.1619 198.033 29.5589C198.024 29.8925 197.93 30.2184 197.761 30.5063C197.592 30.7943 197.352 31.035 197.065 31.2062C196.359 31.6662 195.527 31.8973 194.685 31.8678C193.027 31.8678 191.884 31.2547 191.257 30.0286C191.111 29.7177 190.998 29.5589 190.912 29.5589L190.739 29.6449C188.992 31.0823 186.791 31.8558 184.526 31.8281C183.474 31.8389 182.428 31.6642 181.436 31.312C180.543 30.9942 179.715 30.5142 178.996 29.8963C178.31 29.2989 177.755 28.567 177.365 27.7462C176.963 26.9222 176.756 26.0166 176.762 25.0999C176.756 24.234 176.963 23.3799 177.365 22.6124C177.768 21.8413 178.331 21.1648 179.016 20.6277C179.763 20.0475 180.604 19.5999 181.503 19.3046C182.504 18.9667 183.555 18.799 184.613 18.8084C185.055 18.8074 185.498 18.8295 185.939 18.8746C186.317 18.9185 186.691 19.0005 187.053 19.1194C187.411 19.2384 187.795 19.384 188.213 19.5626C188.671 19.7609 189.118 19.9839 189.552 20.2308V20.2308ZM190.454 26.304L189.791 22.1163C189.188 21.4928 188.481 20.978 187.702 20.5947C186.965 20.2621 186.164 20.095 185.355 20.1051C184.698 20.085 184.044 20.1957 183.43 20.4308C182.816 20.666 182.256 21.0208 181.781 21.4745C181.311 21.9265 180.941 22.4724 180.697 23.0766C180.452 23.6808 180.338 24.3297 180.362 24.9809C180.357 25.6798 180.491 26.3728 180.757 27.0193C181.024 27.6657 181.417 28.2525 181.914 28.7452C182.394 29.2274 182.964 29.6117 183.591 29.8764C184.245 30.1537 184.95 30.2933 185.66 30.2866C186.293 30.29 186.922 30.2031 187.53 30.0286C188.076 29.8825 188.599 29.6598 189.082 29.367C189.504 29.1039 189.864 28.7516 190.136 28.335C190.383 27.9693 190.517 27.539 190.521 27.0979C190.528 26.9701 190.528 26.842 190.521 26.7142C190.501 26.5818 190.481 26.4495 190.454 26.304Z" fill="#00284F"/>
</g>
<defs>
<clipPath id="clip0_1_155">
<rect width="198" height="32" fill="white"/>
</clipPath>
</defs>
</svg>
